<svg width="38" height="36" viewBox="0 0 38 36" fill="none" xmlns="http://www.w3.org/2000/svg">
<g id="account-circle">
<path id="Vector" d="M19.0001 28.8C15.0417 28.8 11.5426 26.88 9.50008 24C9.54758 21 15.8334 19.35 19.0001 19.35C22.1667 19.35 28.4526 21 28.5001 24C26.4576 26.88 22.9584 28.8 19.0001 28.8ZM19.0001 7.5C20.2599 7.5 21.468 7.97411 22.3588 8.81802C23.2496 9.66193 23.7501 10.8065 23.7501 12C23.7501 13.1935 23.2496 14.3381 22.3588 15.182C21.468 16.0259 20.2599 16.5 19.0001 16.5C17.7403 16.5 16.5321 16.0259 15.6413 15.182C14.7505 14.3381 14.2501 13.1935 14.2501 12C14.2501 10.8065 14.7505 9.66193 15.6413 8.81802C16.5321 7.97411 17.7403 7.5 19.0001 7.5ZM19.0001 3C16.9208 3 14.8619 3.38799 12.9409 4.14181C11.0199 4.89563 9.27448 6.00052 7.80422 7.3934C4.8349 10.2064 3.16675 14.0218 3.16675 18C3.16675 21.9782 4.8349 25.7936 7.80422 28.6066C9.27448 29.9995 11.0199 31.1044 12.9409 31.8582C14.8619 32.612 16.9208 33 19.0001 33C23.1993 33 27.2266 31.4196 30.1959 28.6066C33.1653 25.7936 34.8334 21.9782 34.8334 18C34.8334 9.705 27.7084 3 19.0001 3Z" fill="#E6E1DB"/>
</g>
</svg>
