<svg width="39" height="38" viewBox="0 0 39 38" fill="none" xmlns="http://www.w3.org/2000/svg">
<g id="arrow-down-drop-circle">
<path id="Vector" d="M19.5 3.16666C21.634 3.16666 23.7471 3.5762 25.7186 4.3719C27.6901 5.1676 29.4815 6.33387 30.9905 7.80413C32.4994 9.27439 33.6964 11.0198 34.513 12.9408C35.3297 14.8618 35.75 16.9207 35.75 19C35.75 23.1992 34.038 27.2265 30.9905 30.1958C27.943 33.1652 23.8098 34.8333 19.5 34.8333C17.366 34.8333 15.2529 34.4238 13.2814 33.6281C11.3099 32.8324 9.51847 31.6661 8.00951 30.1958C4.96205 27.2265 3.25 23.1992 3.25 19C3.25 14.8007 4.96205 10.7735 8.00951 7.80413C11.057 4.83481 15.1902 3.16666 19.5 3.16666ZM11.375 15.8333L19.5 23.75L27.625 15.8333H11.375Z" fill="#E6E1DB"/>
</g>
</svg>
